<svg id="logo" width="240" height="80" viewBox="0 0 24 8" fill="none" xmlns="http://www.w3.org/2000/svg">
<path d="M21.1199 7.048C21.1119 7.048 21.0999 7.04 21.0839 7.024C21.0679 7.016 21.0559 7.012 21.0479 7.012C21.0159 7.02 20.9879 7.024 20.9639 7.024C20.9399 7.024 20.9159 7.024 20.8919 7.024C20.8839 7.024 20.8759 7.02 20.8679 7.012C20.8679 7.004 20.8639 7 20.8559 7C20.8479 7 20.8439 7 20.8439 7C20.8519 7.008 20.8519 7.012 20.8439 7.012C20.8439 7.012 20.8359 7.008 20.8199 7C20.8039 6.992 20.7919 6.988 20.7839 6.988L20.7719 6.976C20.7559 6.976 20.7439 6.972 20.7359 6.964C20.7359 6.956 20.7319 6.952 20.7239 6.952L20.7119 6.964L20.6999 6.952C20.6839 6.944 20.6599 6.936 20.6279 6.928C20.6039 6.912 20.5839 6.9 20.5679 6.892C20.5519 6.892 20.5319 6.88 20.5079 6.856H20.4839C20.4679 6.832 20.4399 6.816 20.3999 6.808C20.3999 6.8 20.3959 6.792 20.3879 6.784H20.3759C20.3599 6.76 20.3479 6.752 20.3399 6.76C20.3319 6.744 20.3199 6.732 20.3039 6.724C20.2959 6.708 20.2839 6.696 20.2679 6.688C20.2679 6.656 20.2599 6.64 20.2439 6.64C20.2439 6.624 20.2279 6.6 20.1959 6.568C20.1719 6.536 20.1559 6.508 20.1479 6.484L20.1359 6.472C20.1039 6.44 20.0799 6.388 20.0639 6.316C20.0559 6.284 20.0479 6.272 20.0399 6.28C20.0399 6.288 20.0359 6.268 20.0279 6.22C20.0279 6.212 20.0279 6.2 20.0279 6.184C20.0359 6.16 20.0359 6.144 20.0279 6.136C20.0279 6.128 20.0239 6.124 20.0159 6.124C20.0159 6.116 20.0159 6.108 20.0159 6.1C20.0079 6.092 20.0039 6.088 20.0039 6.088C20.0119 6.08 20.0159 6.076 20.0159 6.076C20.0159 6.06 20.0119 6.052 20.0039 6.052C20.0039 6.044 20.0039 6.036 20.0039 6.028V6.004C20.0039 5.964 20.0119 5.936 20.0279 5.92C20.0279 5.904 20.0319 5.892 20.0399 5.884C20.0479 5.876 20.0519 5.868 20.0519 5.86C20.0519 5.844 20.0599 5.836 20.0759 5.836C20.0919 5.836 20.0999 5.832 20.0999 5.824C20.0999 5.808 20.1039 5.8 20.1119 5.8C20.1279 5.792 20.1399 5.784 20.1479 5.776C20.1479 5.768 20.1519 5.76 20.1599 5.752C20.1759 5.744 20.1839 5.736 20.1839 5.728C20.2239 5.704 20.2679 5.692 20.3159 5.692C20.4119 5.692 20.4599 5.716 20.4599 5.764C20.4599 5.78 20.4359 5.808 20.3879 5.848C20.3799 5.872 20.3759 5.888 20.3759 5.896C20.3839 5.896 20.3799 5.904 20.3639 5.92C20.3719 5.944 20.3759 5.976 20.3759 6.016C20.3679 6.016 20.3639 6.028 20.3639 6.052C20.3719 6.068 20.3759 6.076 20.3759 6.076C20.3759 6.084 20.3799 6.108 20.3879 6.148C20.4039 6.188 20.4159 6.212 20.4239 6.22C20.4239 6.22 20.4319 6.24 20.4479 6.28C20.4639 6.312 20.4719 6.332 20.4719 6.34V6.364C20.4879 6.388 20.4959 6.404 20.4959 6.412C20.5039 6.412 20.5359 6.428 20.5919 6.46C20.5999 6.468 20.6159 6.472 20.6399 6.472C20.6799 6.496 20.7079 6.516 20.7239 6.532C20.7479 6.548 20.8039 6.564 20.8919 6.58C20.9239 6.588 20.9359 6.596 20.9279 6.604C20.9279 6.604 20.9439 6.604 20.9759 6.604C20.9759 6.604 20.9759 6.608 20.9759 6.616C20.9759 6.616 20.9799 6.616 20.9879 6.616C21.0039 6.608 21.0199 6.608 21.0359 6.616C21.0519 6.616 21.0679 6.612 21.0839 6.604H21.1319C21.1879 6.604 21.2479 6.596 21.3119 6.58L21.4919 6.532C21.5479 6.524 21.5999 6.508 21.6479 6.484C21.6959 6.46 21.7399 6.436 21.7799 6.412C21.7879 6.412 21.8119 6.4 21.8519 6.376C21.8919 6.344 21.9399 6.312 21.9959 6.28C21.9879 6.256 21.9839 6.224 21.9839 6.184C21.9839 6.16 21.9959 6.148 22.0199 6.148C22.0439 6.14 22.0599 6.128 22.0679 6.112C22.0439 6.096 22.0119 6.088 21.9719 6.088C21.9399 6.088 21.9279 6.076 21.9359 6.052C21.9039 5.876 21.8559 5.716 21.7919 5.572C21.7359 5.428 21.6679 5.268 21.5879 5.092C21.5799 5.068 21.5639 5.028 21.5399 4.972C21.5159 4.916 21.4999 4.872 21.4919 4.84C21.4919 4.832 21.4999 4.832 21.5159 4.84C21.5319 4.84 21.5359 4.836 21.5279 4.828C21.5199 4.788 21.5119 4.748 21.5039 4.708C21.5039 4.668 21.4999 4.632 21.4919 4.6C21.4839 4.584 21.4919 4.572 21.5159 4.564C21.5399 4.556 21.5479 4.544 21.5399 4.528C21.5319 4.512 21.5159 4.508 21.4919 4.516C21.4679 4.524 21.4519 4.52 21.4439 4.504L21.4079 4.36C21.4079 4.32 21.3999 4.296 21.3839 4.288C21.3759 4.28 21.3839 4.264 21.4079 4.24C21.4239 4.232 21.4319 4.22 21.4319 4.204C21.4319 4.18 21.4359 4.164 21.4439 4.156C21.4839 4.132 21.4999 4.104 21.4919 4.072C21.4839 4.032 21.4919 3.996 21.5159 3.964C21.5399 3.932 21.5599 3.904 21.5759 3.88C21.5919 3.848 21.6159 3.828 21.6479 3.82C21.6719 3.804 21.6799 3.808 21.6719 3.832C21.6639 3.856 21.6639 3.868 21.6719 3.868C21.7119 3.868 21.7279 3.848 21.7199 3.808C21.7119 3.768 21.7239 3.732 21.7559 3.7C21.8119 3.652 21.8959 3.612 22.0079 3.58C22.1199 3.548 22.2039 3.528 22.2599 3.52C22.2759 3.52 22.2879 3.52 22.2959 3.52C22.3119 3.512 22.3239 3.508 22.3319 3.508C22.3719 3.508 22.4119 3.512 22.4519 3.52C22.4999 3.528 22.5439 3.536 22.5839 3.544C22.6159 3.552 22.6639 3.584 22.7279 3.64C22.7919 3.688 22.8399 3.7 22.8719 3.676C22.9439 3.612 23.0199 3.556 23.0999 3.508C23.1879 3.46 23.2439 3.44 23.2679 3.448C23.3319 3.456 23.3879 3.476 23.4359 3.508C23.4839 3.532 23.4999 3.612 23.4839 3.748C23.4759 3.796 23.4559 3.836 23.4239 3.868C23.3999 3.892 23.3759 3.924 23.3519 3.964L23.2679 4.084C23.2359 4.14 23.1959 4.196 23.1479 4.252C23.1079 4.308 23.0719 4.344 23.0399 4.36C23.0079 4.376 22.9759 4.404 22.9439 4.444C22.9199 4.476 22.8879 4.508 22.8479 4.54C22.8079 4.572 22.7639 4.596 22.7159 4.612C22.6759 4.62 22.6479 4.628 22.6319 4.636C22.6079 4.644 22.5719 4.648 22.5239 4.648C22.4839 4.64 22.4719 4.624 22.4879 4.6C22.5039 4.592 22.5079 4.584 22.4999 4.576C22.4919 4.56 22.4879 4.548 22.4879 4.54C22.4879 4.524 22.4959 4.512 22.5119 4.504C22.5359 4.496 22.5519 4.484 22.5599 4.468C22.5679 4.46 22.5879 4.432 22.6199 4.384C22.6599 4.336 22.6759 4.308 22.6679 4.3C22.6679 4.276 22.6759 4.256 22.6919 4.24C22.6919 4.224 22.6919 4.212 22.6919 4.204C22.6919 4.188 22.6999 4.176 22.7159 4.168C22.7479 4.16 22.7639 4.148 22.7639 4.132V3.988C22.7639 3.956 22.7599 3.924 22.7519 3.892C22.7519 3.86 22.7439 3.832 22.7279 3.808C22.6639 3.728 22.5599 3.688 22.4159 3.688C22.3119 3.688 22.2119 3.712 22.1159 3.76C22.0119 3.808 21.9239 3.888 21.8519 4C21.7959 4.08 21.7679 4.164 21.7679 4.252C21.7679 4.316 21.7799 4.38 21.8039 4.444C21.8359 4.508 21.8639 4.568 21.8879 4.624C21.9119 4.68 21.9439 4.748 21.9839 4.828C22.0319 4.908 22.0679 4.972 22.0919 5.02C22.1319 5.084 22.1759 5.16 22.2239 5.248C22.2719 5.328 22.3079 5.404 22.3319 5.476C22.3399 5.484 22.3319 5.492 22.3079 5.5C22.2919 5.5 22.2879 5.508 22.2959 5.524C22.3039 5.54 22.3159 5.548 22.3319 5.548C22.3479 5.548 22.3599 5.556 22.3679 5.572C22.3839 5.596 22.3839 5.616 22.3679 5.632C22.3599 5.648 22.3599 5.672 22.3679 5.704C22.3679 5.712 22.3759 5.72 22.3919 5.728C22.4079 5.736 22.4159 5.744 22.4159 5.752C22.4559 5.856 22.4759 5.94 22.4759 6.004C22.5479 5.964 22.6279 5.916 22.7159 5.86C22.8039 5.804 22.8519 5.752 22.8599 5.704C22.8679 5.688 22.8799 5.684 22.8959 5.692C22.9199 5.692 22.9319 5.7 22.9319 5.716C22.9239 5.772 22.8559 5.848 22.7279 5.944C22.6079 6.04 22.5159 6.108 22.4519 6.148C22.4599 6.156 22.4559 6.176 22.4399 6.208C22.4239 6.24 22.4199 6.264 22.4279 6.28C22.4279 6.288 22.4239 6.3 22.4159 6.316C22.4079 6.324 22.3999 6.336 22.3919 6.352C22.3919 6.384 22.3839 6.408 22.3679 6.424V6.448L22.3319 6.472C22.3239 6.48 22.3119 6.5 22.2959 6.532C22.2879 6.556 22.2759 6.576 22.2599 6.592H22.2239C22.2079 6.608 22.1999 6.628 22.1999 6.652C22.1839 6.676 22.1479 6.704 22.0919 6.736C22.0359 6.76 21.9999 6.784 21.9839 6.808C21.9839 6.808 21.9799 6.808 21.9719 6.808C21.9639 6.808 21.9519 6.816 21.9359 6.832H21.8999C21.8919 6.832 21.8839 6.84 21.8759 6.856C21.8679 6.864 21.8599 6.872 21.8519 6.88C21.8279 6.88 21.8159 6.888 21.8159 6.904C21.7839 6.904 21.7599 6.908 21.7439 6.916L21.6239 6.94C21.5919 6.972 21.5639 6.988 21.5399 6.988L21.5279 6.976C21.5119 6.992 21.4999 7 21.4919 7H21.4439C21.4359 7 21.4279 7.004 21.4199 7.012C21.4119 7.02 21.4039 7.024 21.3959 7.024H21.3719C21.3639 7.024 21.3559 7.024 21.3479 7.024C21.3479 7.032 21.3399 7.036 21.3239 7.036C21.2999 7.036 21.2639 7.036 21.2159 7.036C21.1759 7.036 21.1439 7.04 21.1199 7.048ZM20.9999 6.94C20.9999 6.94 21.0079 6.94 21.0239 6.94C21.0479 6.932 21.0639 6.928 21.0719 6.928C21.1119 6.928 21.1479 6.932 21.1799 6.94C21.2119 6.94 21.2439 6.94 21.2759 6.94C21.2919 6.94 21.2999 6.932 21.2999 6.916H21.3239C21.3479 6.892 21.3599 6.888 21.3599 6.904C21.3679 6.92 21.3799 6.92 21.3959 6.904C21.4119 6.904 21.4199 6.9 21.4199 6.892L21.4679 6.868C21.4759 6.868 21.4799 6.868 21.4799 6.868C21.4799 6.86 21.4839 6.856 21.4919 6.856H21.5159C21.5319 6.856 21.5479 6.848 21.5639 6.832C21.5799 6.816 21.5879 6.808 21.5879 6.808C21.5879 6.808 21.5999 6.796 21.6239 6.772C21.6239 6.772 21.6279 6.772 21.6359 6.772C21.6439 6.764 21.6519 6.76 21.6599 6.76C21.6759 6.744 21.6919 6.736 21.7079 6.736C21.7079 6.728 21.7159 6.72 21.7319 6.712C21.7479 6.696 21.7559 6.688 21.7559 6.688C21.7639 6.68 21.7719 6.676 21.7799 6.676C21.7959 6.668 21.8039 6.66 21.8039 6.652C21.8199 6.652 21.8519 6.624 21.8999 6.568C21.9479 6.512 21.9799 6.444 21.9959 6.364C21.9959 6.348 21.9719 6.36 21.9239 6.4C21.8759 6.432 21.8519 6.448 21.8519 6.448C21.8279 6.456 21.8039 6.472 21.7799 6.496C21.7559 6.512 21.7359 6.52 21.7199 6.52C21.7119 6.52 21.6999 6.528 21.6839 6.544C21.6759 6.552 21.6679 6.556 21.6599 6.556C21.6519 6.556 21.6479 6.56 21.6479 6.568C21.6479 6.568 21.6399 6.564 21.6239 6.556C21.6159 6.572 21.5919 6.588 21.5519 6.604C21.5119 6.62 21.4839 6.628 21.4679 6.628H21.4319L21.4199 6.64C21.4199 6.64 21.4159 6.644 21.4079 6.652C21.3999 6.652 21.3919 6.652 21.3839 6.652L21.2999 6.664H21.2879C21.2799 6.664 21.2719 6.668 21.2639 6.676C21.2319 6.676 21.1959 6.68 21.1559 6.688C21.1159 6.696 21.0919 6.7 21.0839 6.7H21.0719C21.0719 6.692 21.0679 6.688 21.0599 6.688V6.7H20.9999C20.9759 6.7 20.9479 6.696 20.9159 6.688C20.8919 6.672 20.8719 6.664 20.8559 6.664C20.8479 6.664 20.8439 6.668 20.8439 6.676C20.8439 6.676 20.8399 6.676 20.8319 6.676H20.8079C20.7999 6.676 20.7959 6.672 20.7959 6.664H20.7359C20.7359 6.64 20.7279 6.636 20.7119 6.652H20.6999C20.6679 6.652 20.6399 6.64 20.6159 6.616C20.5999 6.592 20.5719 6.58 20.5319 6.58L20.4959 6.544C20.4959 6.552 20.4919 6.56 20.4839 6.568C20.4839 6.568 20.4839 6.572 20.4839 6.58C20.4839 6.58 20.4879 6.588 20.4959 6.604C20.5119 6.612 20.5199 6.62 20.5199 6.628L20.5439 6.676L20.5919 6.736L20.6159 6.76C20.6239 6.768 20.6279 6.772 20.6279 6.772C20.6359 6.772 20.6439 6.78 20.6519 6.796C20.6679 6.796 20.6759 6.808 20.6759 6.832C20.8119 6.904 20.9199 6.94 20.9999 6.94Z" fill="#2B3A52"/>
<path d="M18.11 7.75558C18.086 7.71558 18.074 7.66358 18.074 7.59958C18.074 7.56758 18.082 7.52758 18.098 7.47958C18.106 7.45558 18.122 7.38758 18.146 7.27558C18.178 7.17158 18.21 7.06758 18.242 6.96358C18.274 6.85158 18.294 6.78758 18.302 6.77158C18.31 6.77158 18.334 6.71158 18.374 6.59158C18.422 6.46358 18.474 6.32758 18.53 6.18358C18.586 6.03958 18.63 5.94758 18.662 5.90758C18.694 5.81958 18.746 5.71158 18.818 5.58358C18.898 5.44758 18.97 5.28758 19.034 5.10358L19.01 5.12758C18.914 5.22358 18.79 5.37158 18.638 5.57158C18.494 5.76358 18.334 5.96358 18.158 6.17158C17.982 6.37158 17.802 6.54758 17.618 6.69958C17.442 6.84358 17.274 6.91558 17.114 6.91558C16.986 6.91558 16.838 6.87158 16.67 6.78358C16.502 6.68758 16.418 6.51958 16.418 6.27958C16.418 6.14358 16.454 5.98758 16.526 5.81158C16.526 5.79558 16.53 5.77558 16.538 5.75158C16.554 5.72758 16.57 5.71158 16.586 5.70358C16.602 5.69558 16.618 5.69958 16.634 5.71558C16.65 5.72358 16.662 5.71958 16.67 5.70358C16.678 5.70358 16.694 5.69958 16.718 5.69158C16.742 5.67558 16.75 5.66358 16.742 5.65558C16.734 5.64758 16.714 5.64358 16.682 5.64358C16.65 5.63558 16.634 5.62758 16.634 5.61958C16.626 5.60358 16.626 5.59158 16.634 5.58358C16.642 5.56758 16.646 5.55158 16.646 5.53558C16.646 5.51158 16.654 5.49558 16.67 5.48758C16.694 5.47158 16.71 5.45558 16.718 5.43958C16.718 5.39958 16.742 5.37158 16.79 5.35558C16.798 5.34758 16.81 5.34358 16.826 5.34358C16.858 5.34358 16.866 5.33558 16.85 5.31958C16.834 5.29558 16.826 5.27158 16.826 5.24758C16.834 5.23158 16.846 5.21558 16.862 5.19958C16.886 5.17558 16.902 5.15958 16.91 5.15158C16.926 5.13558 16.946 5.10758 16.97 5.06758C17.002 5.01958 17.026 4.99158 17.042 4.98358C17.058 4.98358 17.066 4.99158 17.066 5.00758C17.074 5.01558 17.082 5.01558 17.09 5.00758C17.106 4.99158 17.11 4.97158 17.102 4.94758C17.094 4.92358 17.098 4.90358 17.114 4.88758C17.13 4.87158 17.154 4.84358 17.186 4.80358C17.218 4.76358 17.242 4.73958 17.258 4.73158C17.274 4.71558 17.282 4.71558 17.282 4.73158C17.282 4.73958 17.286 4.74358 17.294 4.74358C17.31 4.74358 17.322 4.72758 17.33 4.69558C17.338 4.65558 17.346 4.63158 17.354 4.62358C17.37 4.61558 17.39 4.61558 17.414 4.62358C17.446 4.62358 17.466 4.61958 17.474 4.61158C17.49 4.60358 17.49 4.59158 17.474 4.57558C17.466 4.55158 17.466 4.53158 17.474 4.51558C17.474 4.49958 17.482 4.48758 17.498 4.47958C17.514 4.47158 17.526 4.46358 17.534 4.45558C17.622 4.37558 17.71 4.29958 17.798 4.22758C17.894 4.15558 17.99 4.09158 18.086 4.03558C18.102 4.02758 18.118 4.01958 18.134 4.01158C18.158 4.00358 18.178 3.99958 18.194 3.99958C18.21 3.99958 18.222 4.00358 18.23 4.01158C18.238 4.01958 18.246 4.02358 18.254 4.02358C18.27 4.00758 18.274 3.99558 18.266 3.98758C18.266 3.97158 18.27 3.95558 18.278 3.93958C18.286 3.92358 18.302 3.91158 18.326 3.90358C18.35 3.89558 18.366 3.88758 18.374 3.87958C18.47 3.83958 18.566 3.80758 18.662 3.78358C18.758 3.75158 18.85 3.73558 18.938 3.73558C19.074 3.73558 19.206 3.76758 19.334 3.83158C19.382 3.83158 19.438 3.83958 19.502 3.85558L19.574 3.73558C19.59 3.70358 19.618 3.68758 19.658 3.68758H19.694C19.718 3.68758 19.73 3.67558 19.73 3.65158C19.73 3.62758 19.718 3.57558 19.694 3.49558C19.694 3.43158 19.722 3.39558 19.778 3.38758L19.802 3.37558C19.834 3.20758 19.878 3.09558 19.934 3.03958L20.018 2.94358C20.106 2.83958 20.174 2.72758 20.222 2.60758C20.238 2.57558 20.258 2.54758 20.282 2.52358C20.314 2.49958 20.338 2.47158 20.354 2.43958C20.37 2.41558 20.374 2.39158 20.366 2.36758C20.358 2.33558 20.358 2.31158 20.366 2.29558C20.502 2.07958 20.654 1.88758 20.822 1.71958C20.838 1.67958 20.858 1.63958 20.882 1.59958C20.914 1.55958 20.946 1.51958 20.978 1.47958C21.018 1.42358 21.066 1.38358 21.122 1.35958C21.178 1.33558 21.234 1.29558 21.29 1.23958C21.306 1.22358 21.31 1.19958 21.302 1.16758C21.302 1.12758 21.31 1.09958 21.326 1.08358C21.582 0.851578 21.87 0.659579 22.19 0.507579C22.51 0.347578 22.762 0.267578 22.946 0.267578C23.01 0.267578 23.07 0.275578 23.126 0.291579C23.182 0.299578 23.242 0.303578 23.306 0.303578H23.33C23.37 0.303578 23.406 0.315578 23.438 0.339579C23.478 0.355578 23.518 0.367578 23.558 0.375578C23.59 0.375578 23.63 0.383578 23.678 0.399579C23.718 0.415578 23.742 0.439578 23.75 0.471578C23.758 0.503578 23.754 0.527578 23.738 0.543578C23.73 0.551579 23.718 0.551579 23.702 0.543578C23.686 0.535578 23.666 0.531578 23.642 0.531578C23.626 0.523578 23.61 0.515579 23.594 0.507579C23.578 0.491578 23.562 0.479578 23.546 0.471578C23.514 0.471578 23.478 0.479578 23.438 0.495578C23.406 0.503578 23.374 0.503578 23.342 0.495578C23.262 0.495578 23.21 0.487578 23.186 0.471578C23.162 0.455579 23.118 0.455579 23.054 0.471578C23.046 0.471578 23.022 0.475578 22.982 0.483578C22.942 0.491578 22.914 0.495578 22.898 0.495578C22.618 0.567578 22.374 0.687578 22.166 0.855578C21.966 1.02358 21.786 1.21158 21.626 1.41958C21.474 1.61958 21.326 1.81558 21.182 2.00758C21.15 2.07158 21.118 2.13558 21.086 2.19958C21.054 2.26358 21.022 2.31558 20.99 2.35558C20.982 2.36358 20.974 2.35958 20.966 2.34358C20.958 2.32758 20.95 2.32758 20.942 2.34358C20.918 2.36758 20.902 2.40758 20.894 2.46358C20.886 2.51958 20.87 2.56358 20.846 2.59558C20.838 2.60358 20.826 2.59958 20.81 2.58358C20.802 2.55958 20.794 2.55558 20.786 2.57158C20.778 2.58758 20.77 2.61958 20.762 2.66758C20.754 2.71558 20.742 2.74758 20.726 2.76358C20.638 2.89958 20.538 3.02758 20.426 3.14758C20.322 3.26758 20.222 3.41158 20.126 3.57958C19.974 3.82758 19.798 4.12758 19.598 4.47958C19.398 4.82358 19.226 5.13958 19.082 5.42758C19.026 5.53158 18.986 5.62358 18.962 5.70358C18.938 5.77558 18.914 5.84358 18.89 5.90758C18.874 5.95558 18.866 5.98358 18.866 5.99158C18.866 6.05558 18.902 6.08758 18.974 6.08758C18.998 6.08758 19.022 6.08358 19.046 6.07558C19.07 6.05958 19.094 6.04758 19.118 6.03958C19.142 6.02358 19.17 6.01158 19.202 6.00358C19.234 5.99558 19.262 5.98358 19.286 5.96758C19.294 5.95958 19.342 5.93158 19.43 5.88358C19.518 5.82758 19.602 5.75958 19.682 5.67958C19.698 5.67158 19.718 5.65558 19.742 5.63158C19.766 5.60758 19.782 5.59158 19.79 5.58358L19.922 5.47558C19.938 5.45158 19.958 5.43958 19.982 5.43958C20.014 5.43958 20.038 5.45558 20.054 5.48758C20.07 5.51958 20.066 5.55158 20.042 5.58358C20.034 5.59958 20.01 5.61958 19.97 5.64358C19.93 5.65958 19.89 5.68758 19.85 5.72758C19.786 5.78358 19.71 5.84358 19.622 5.90758C19.542 5.97158 19.466 6.02758 19.394 6.07558C19.362 6.09158 19.326 6.11558 19.286 6.14758C19.246 6.17158 19.218 6.19958 19.202 6.23158L19.094 6.39958C19.094 6.41558 19.086 6.42358 19.07 6.42358C19.062 6.41558 19.038 6.42758 18.998 6.45958C18.99 6.46758 18.986 6.48358 18.986 6.50758C18.986 6.53158 18.978 6.55158 18.962 6.56758C18.954 6.59158 18.942 6.61158 18.926 6.62758C18.91 6.63558 18.902 6.64358 18.902 6.65158C18.902 6.67558 18.89 6.69158 18.866 6.69958C18.842 6.70758 18.822 6.71958 18.806 6.73558C18.798 6.74358 18.798 6.75558 18.806 6.77158C18.814 6.78758 18.814 6.80358 18.806 6.81958L18.698 7.07158C18.69 7.08758 18.678 7.10358 18.662 7.11958C18.654 7.13558 18.642 7.14758 18.626 7.15558C18.618 7.16358 18.606 7.15958 18.59 7.14358C18.574 7.13558 18.562 7.13958 18.554 7.15558C18.554 7.17158 18.558 7.19558 18.566 7.22758C18.582 7.25958 18.578 7.28358 18.554 7.29958C18.53 7.31558 18.51 7.34758 18.494 7.39558C18.478 7.45158 18.462 7.49158 18.446 7.51558C18.422 7.54758 18.394 7.56758 18.362 7.57558C18.338 7.58358 18.314 7.60758 18.29 7.64758C18.282 7.65558 18.254 7.68758 18.206 7.74358C18.166 7.80758 18.134 7.81158 18.11 7.75558ZM16.922 6.69958C16.946 6.69958 16.982 6.69158 17.03 6.67558C17.254 6.55558 17.45 6.43158 17.618 6.30358C17.618 6.29558 17.642 6.28358 17.69 6.26758C17.738 6.25158 17.758 6.23958 17.75 6.23158L17.81 6.21958C17.81 6.21958 17.822 6.22358 17.846 6.23158C17.87 6.23958 17.874 6.22758 17.858 6.19558C17.898 6.15558 17.906 6.13158 17.882 6.12358C17.858 6.11558 17.85 6.11158 17.858 6.11158C17.882 6.07158 17.902 6.05158 17.918 6.05158C17.934 6.05158 17.958 6.03558 17.99 6.00358C18.014 5.98758 18.038 5.97158 18.062 5.95558C18.086 5.93158 18.106 5.91158 18.122 5.89558C18.122 5.88758 18.122 5.88358 18.122 5.88358C18.13 5.87558 18.134 5.86758 18.134 5.85958C18.134 5.85958 18.146 5.85958 18.17 5.85958C18.202 5.85158 18.222 5.83558 18.23 5.81158C18.302 5.79558 18.314 5.78758 18.266 5.78758C18.218 5.77958 18.194 5.77158 18.194 5.76358C18.194 5.76358 18.21 5.75158 18.242 5.72758C18.274 5.70358 18.282 5.68758 18.266 5.67958V5.66758L18.302 5.61958L18.35 5.60758L18.362 5.57158C18.362 5.54758 18.39 5.52358 18.446 5.49958C18.51 5.46758 18.546 5.43958 18.554 5.41558C18.674 5.25558 18.774 5.11558 18.854 4.99558C18.942 4.86758 19.002 4.76358 19.034 4.68358C19.05 4.65158 19.066 4.62358 19.082 4.59958C19.098 4.57558 19.114 4.55158 19.13 4.52758C19.146 4.46358 19.162 4.40358 19.178 4.34758C19.194 4.28358 19.214 4.21558 19.238 4.14358C19.206 4.13558 19.154 4.13158 19.082 4.13158C18.962 4.13158 18.822 4.15558 18.662 4.20358C18.51 4.25158 18.342 4.34358 18.158 4.47958C18.126 4.50358 18.086 4.53958 18.038 4.58758C17.998 4.63558 17.962 4.65558 17.93 4.64758H17.906C17.882 4.64758 17.87 4.66358 17.87 4.69558C17.878 4.71958 17.866 4.74758 17.834 4.77958C17.818 4.79558 17.798 4.81158 17.774 4.82758C17.75 4.83558 17.722 4.85558 17.69 4.88758C17.674 4.90358 17.662 4.92358 17.654 4.94758C17.646 4.96358 17.63 4.98358 17.606 5.00758C17.574 5.04758 17.534 5.09158 17.486 5.13958C17.446 5.17958 17.41 5.21558 17.378 5.24758C17.346 5.27958 17.306 5.31958 17.258 5.36758C17.218 5.41558 17.186 5.46358 17.162 5.51158C17.154 5.51958 17.142 5.51158 17.126 5.48758C17.11 5.46358 17.098 5.45558 17.09 5.46358V5.47558C17.09 5.49158 17.098 5.51558 17.114 5.54758C17.13 5.57158 17.13 5.59158 17.114 5.60758C17.106 5.62358 17.09 5.65558 17.066 5.70358C17.05 5.75158 17.034 5.78758 17.018 5.81158C16.954 5.93958 16.898 6.06758 16.85 6.19558C16.81 6.32358 16.79 6.43158 16.79 6.51958C16.79 6.63958 16.834 6.69958 16.922 6.69958Z" fill="#2B3A52"/>
<path d="M16.3687 3.25585C16.3447 3.25585 16.3207 3.24785 16.2967 3.23185C16.2807 3.21585 16.2567 3.19585 16.2247 3.17185C16.2087 3.16385 16.1887 3.15585 16.1647 3.14785C16.1487 3.13185 16.1407 3.10785 16.1407 3.07585C16.1327 3.06785 16.1167 3.06385 16.0927 3.06385C16.0527 3.06385 16.0327 3.03585 16.0327 2.97985C16.0327 2.91585 16.0647 2.87185 16.1287 2.84785L16.1887 2.79985V2.81185L16.2367 2.75185H16.2607C16.3087 2.75185 16.3407 2.72785 16.3567 2.67985C16.3807 2.63185 16.4287 2.59985 16.5007 2.58385C16.5487 2.56785 16.5887 2.57185 16.6207 2.59585C16.6527 2.61985 16.6927 2.63185 16.7407 2.63185C16.7887 2.63185 16.8407 2.61585 16.8967 2.58385L17.0767 2.54785C17.1007 2.54785 17.1127 2.55585 17.1127 2.57185C17.1127 2.58785 17.0887 2.60785 17.0407 2.63185C17.0007 2.65585 16.9727 2.67585 16.9567 2.69185L16.9447 2.70385L16.9327 2.72785L16.8847 2.78785C16.8367 2.84385 16.7807 2.91185 16.7167 2.99185C16.6607 3.06385 16.6007 3.12385 16.5367 3.17185C16.4647 3.22785 16.4087 3.25585 16.3687 3.25585ZM14.5447 7.03585C14.4967 7.03585 14.4727 7.00785 14.4727 6.95185C14.4727 6.91185 14.4847 6.86385 14.5087 6.80785C14.5727 6.67185 14.6447 6.47985 14.7247 6.23185C14.8127 5.98385 14.9207 5.77185 15.0487 5.59585C15.1367 5.41985 15.2167 5.24785 15.2887 5.07985C15.3687 4.90385 15.4447 4.72785 15.5167 4.55185C15.5167 4.55185 15.5087 4.54785 15.4927 4.53985C15.4847 4.52385 15.4807 4.50785 15.4807 4.49185C15.4327 4.45985 15.3807 4.41585 15.3247 4.35985C15.2767 4.29585 15.2727 4.23185 15.3127 4.16785C15.3287 4.15185 15.3407 4.14385 15.3487 4.14385C15.3567 4.14385 15.3607 4.14385 15.3607 4.14385C15.3607 4.13585 15.3567 4.13185 15.3487 4.13185C15.3487 4.12385 15.3487 4.11985 15.3487 4.11985C15.3487 4.08785 15.3647 4.06785 15.3967 4.05985C15.4287 4.05185 15.4447 4.03985 15.4447 4.02385C15.4607 3.91185 15.5567 3.82785 15.7327 3.77185C15.9087 3.71585 16.0647 3.68785 16.2007 3.68785C16.3367 3.68785 16.4047 3.70785 16.4047 3.74785C16.4047 3.76385 16.3807 3.79185 16.3327 3.83185C16.3087 3.84785 16.2687 3.88385 16.2127 3.93985C16.1567 3.99585 16.1047 4.06385 16.0567 4.14385L15.9607 4.28785C15.9527 4.30385 15.9407 4.32385 15.9247 4.34785C15.9167 4.36385 15.9047 4.37985 15.8887 4.39585C15.7607 4.62785 15.6567 4.82385 15.5767 4.98385C15.4967 5.14385 15.4007 5.34785 15.2887 5.59585C15.2727 5.64385 15.2647 5.67585 15.2647 5.69185C15.2647 5.74785 15.2967 5.77585 15.3607 5.77585C15.4087 5.77585 15.4567 5.76385 15.5047 5.73985L15.6247 5.69185C15.8167 5.51585 16.0167 5.36785 16.2247 5.24785C16.2327 5.24785 16.2367 5.24785 16.2367 5.24785C16.2447 5.23985 16.2527 5.23585 16.2607 5.23585C16.2847 5.23585 16.3007 5.25185 16.3087 5.28385C16.3167 5.30785 16.3087 5.32785 16.2847 5.34385C16.0527 5.47185 15.8367 5.63585 15.6367 5.83585C15.6287 5.85185 15.6207 5.86785 15.6127 5.88385C15.6047 5.89985 15.5927 5.91585 15.5767 5.93185C15.5607 5.94785 15.5367 5.97585 15.5047 6.01585C15.4807 6.05585 15.4687 6.07985 15.4687 6.08785C15.4607 6.11185 15.4487 6.11985 15.4327 6.11185C15.4247 6.10385 15.4007 6.11585 15.3607 6.14785C15.3527 6.15585 15.3447 6.17185 15.3367 6.19585C15.3367 6.21985 15.3327 6.23985 15.3247 6.25585C15.3167 6.27985 15.3007 6.29985 15.2767 6.31585C15.2607 6.32385 15.2527 6.33185 15.2527 6.33985C15.2447 6.37185 15.2287 6.39185 15.2047 6.39985C15.1887 6.39985 15.1727 6.40785 15.1567 6.42385C15.1487 6.43185 15.1487 6.44385 15.1567 6.45985C15.1647 6.47585 15.1607 6.49185 15.1447 6.50785C15.1367 6.53185 15.1287 6.54385 15.1207 6.54385C15.1127 6.53585 15.1007 6.53985 15.0847 6.55585C15.0527 6.58785 15.0287 6.60385 15.0127 6.60385C14.9647 6.61985 14.9447 6.63185 14.9527 6.63985C14.9687 6.64785 14.9807 6.65585 14.9887 6.66385C15.0047 6.66385 14.9927 6.67585 14.9527 6.69985C14.9367 6.70785 14.9207 6.73185 14.9047 6.77185C14.8887 6.80385 14.8727 6.82785 14.8567 6.84385C14.8327 6.85985 14.8087 6.87185 14.7847 6.87985C14.7687 6.88785 14.7487 6.90385 14.7247 6.92785C14.6527 6.99985 14.5927 7.03585 14.5447 7.03585Z" fill="#2B3A52"/>
<path d="M13.1374 6.9879C13.0174 6.9879 12.9294 6.9359 12.8734 6.8319C12.8654 6.8079 12.8454 6.7719 12.8134 6.7239C12.7894 6.6759 12.7694 6.6359 12.7534 6.6039V6.5919C12.7534 6.5759 12.7574 6.5599 12.7654 6.5439C12.7734 6.5279 12.7774 6.5119 12.7774 6.4959C12.7774 6.4639 12.7694 6.4359 12.7534 6.4119C12.7374 6.3799 12.7294 6.3479 12.7294 6.3159C12.7294 6.2039 12.7614 6.0719 12.8254 5.9199C12.8974 5.7679 12.9534 5.6359 12.9934 5.5239C13.0094 5.4599 13.0494 5.3839 13.1134 5.2959C13.1214 5.2879 13.1294 5.2839 13.1374 5.2839C13.1534 5.2839 13.1654 5.2799 13.1734 5.2719C13.1894 5.2479 13.1974 5.2239 13.1974 5.1999C13.2054 5.1679 13.2134 5.1399 13.2214 5.1159C13.2294 5.0999 13.2454 5.0919 13.2694 5.0919C13.2934 5.0919 13.3094 5.0839 13.3174 5.0679C13.3254 5.0519 13.3134 5.0439 13.2814 5.0439C13.2494 5.0439 13.2374 5.0359 13.2454 5.0199C13.3014 4.9159 13.3614 4.8079 13.4254 4.6959C13.4974 4.5839 13.5454 4.5119 13.5694 4.4799C13.5614 4.4879 13.5574 4.4799 13.5574 4.4559C13.5574 4.4239 13.5494 4.4119 13.5334 4.4199C13.5254 4.4279 13.5054 4.4479 13.4734 4.4799C13.4414 4.5119 13.4174 4.5359 13.4014 4.5519C13.3614 4.5839 13.3134 4.6279 13.2574 4.6839C13.2014 4.7399 13.1654 4.7759 13.1494 4.7919C13.1254 4.7999 13.0934 4.8359 13.0534 4.8999C13.0134 4.9559 12.9854 4.9919 12.9694 5.0079C12.9374 5.0399 12.9054 5.0559 12.8734 5.0559C12.8574 5.0559 12.8454 5.0479 12.8374 5.0319C12.8374 5.0079 12.8454 4.9839 12.8614 4.9599C12.8774 4.9439 12.8934 4.9239 12.9094 4.8999C12.9254 4.8679 12.9374 4.8439 12.9454 4.8279C12.9534 4.8199 12.9654 4.8079 12.9814 4.7919C12.9974 4.7679 13.0054 4.7519 13.0054 4.7439L13.1014 4.6359C13.1094 4.6279 13.1254 4.6279 13.1494 4.6359C13.1734 4.6359 13.1894 4.6319 13.1974 4.6239C13.2054 4.6079 13.1934 4.5999 13.1614 4.5999C13.1374 4.5919 13.1294 4.5839 13.1374 4.5759C13.2094 4.4479 13.3014 4.3239 13.4134 4.2039C13.5254 4.0839 13.6014 3.9999 13.6414 3.9519C13.6814 3.9039 13.7334 3.8679 13.7974 3.8439C13.8694 3.8119 13.9374 3.7959 14.0014 3.7959C14.0574 3.7959 14.0974 3.7999 14.1214 3.8079C14.1694 3.8239 14.2254 3.8479 14.2894 3.8799C14.3614 3.9039 14.4054 3.9399 14.4214 3.9879C14.4454 4.0359 14.4294 4.1119 14.3734 4.2159C14.3174 4.3199 14.2494 4.4239 14.1694 4.5279C14.0974 4.6239 14.0374 4.6879 13.9894 4.7199C13.9814 4.7279 13.9614 4.7319 13.9294 4.7319C13.8974 4.7319 13.8574 4.7319 13.8094 4.7319C13.7614 4.7239 13.7334 4.7279 13.7254 4.7439C13.7014 4.7759 13.6734 4.8079 13.6414 4.8399C13.6094 4.8639 13.5854 4.8959 13.5694 4.9359C13.5614 4.9839 13.5494 5.0239 13.5334 5.0559C13.5254 5.0879 13.5014 5.1359 13.4614 5.1999C13.4534 5.2159 13.4374 5.2439 13.4134 5.2839C13.3894 5.3159 13.3734 5.3399 13.3654 5.3559C13.3094 5.5319 13.2574 5.6999 13.2094 5.8599C13.1694 6.0119 13.1494 6.1399 13.1494 6.2439C13.1494 6.3479 13.1814 6.4399 13.2454 6.5199C13.3094 6.5919 13.3934 6.6279 13.4974 6.6279C13.6174 6.6279 13.7454 6.5879 13.8814 6.5079C13.9614 6.4759 14.0494 6.4159 14.1454 6.3279C14.1614 6.3119 14.1734 6.2999 14.1814 6.2919C14.1974 6.2759 14.2134 6.2639 14.2294 6.2559H14.2654C14.3054 6.2559 14.3254 6.2719 14.3254 6.3039C14.3254 6.3359 14.2974 6.3759 14.2414 6.4239C14.2094 6.4479 14.1774 6.4679 14.1454 6.4839C14.1214 6.4999 14.0934 6.5199 14.0614 6.5439C14.0214 6.5679 13.9774 6.6079 13.9294 6.6639C13.8814 6.7119 13.8254 6.7359 13.7614 6.7359H13.7494C13.7254 6.7359 13.7054 6.7319 13.6894 6.7239C13.6734 6.7079 13.6574 6.7039 13.6414 6.7119C13.6174 6.7199 13.6174 6.7359 13.6414 6.7599C13.6734 6.7759 13.6774 6.7919 13.6534 6.8079L13.5574 6.8559C13.3814 6.9439 13.2414 6.9879 13.1374 6.9879ZM11.1934 6.9159C11.1454 6.9159 11.0854 6.8639 11.0134 6.7599C10.9654 6.6959 10.9414 6.5959 10.9414 6.4599C10.9414 6.3239 10.9654 6.1759 11.0134 6.0159C11.0694 5.8559 11.1374 5.7159 11.2174 5.5959C11.3054 5.4199 11.3654 5.2879 11.3974 5.1999C11.4294 5.1119 11.4614 5.0399 11.4934 4.9839C11.4934 4.9759 11.4854 4.9679 11.4694 4.9599C11.4534 4.9519 11.4454 4.9359 11.4454 4.9119C11.3974 4.8799 11.3454 4.8359 11.2894 4.7799C11.2414 4.7159 11.2374 4.6559 11.2774 4.5999C11.2934 4.5839 11.3054 4.5759 11.3134 4.5759C11.3214 4.5679 11.3254 4.5639 11.3254 4.5639V4.5399C11.3254 4.5079 11.3374 4.4879 11.3614 4.4799C11.3934 4.4719 11.4094 4.4599 11.4094 4.4439C11.4254 4.3319 11.5174 4.2479 11.6854 4.1919C11.8614 4.1359 12.0174 4.1079 12.1534 4.1079C12.3054 4.1079 12.3814 4.1319 12.3814 4.1799C12.3814 4.2039 12.3534 4.2319 12.2974 4.2639C12.2734 4.2719 12.2334 4.3039 12.1774 4.3599C12.1214 4.4159 12.0694 4.4839 12.0214 4.5639L11.9374 4.7079L11.8534 4.8159C11.8054 4.9039 11.7534 4.9959 11.6974 5.0919C11.6494 5.1799 11.5694 5.3479 11.4574 5.5959C11.4254 5.6759 11.3974 5.7519 11.3734 5.8239C11.3574 5.8959 11.3574 5.9519 11.3734 5.9919C11.3814 5.9999 11.3534 6.0279 11.2894 6.0759C11.2334 6.1239 11.2094 6.1519 11.2174 6.1599C11.2254 6.1599 11.2374 6.1639 11.2534 6.1719C11.2694 6.1719 11.2894 6.1719 11.3134 6.1719C11.3614 6.1719 11.4094 6.1639 11.4574 6.1479C11.4814 6.1399 11.5014 6.1239 11.5174 6.0999C11.5334 6.0679 11.5454 6.0519 11.5534 6.0519C11.6014 6.0519 11.6534 6.0399 11.7094 6.0159C11.7974 5.9759 11.9054 5.8959 12.0334 5.7759C12.0494 5.7599 12.0814 5.7479 12.1294 5.7399C12.1774 5.7239 12.2174 5.6959 12.2494 5.6559C12.3454 5.5679 12.4014 5.5159 12.4174 5.4999C12.4334 5.4759 12.4814 5.4239 12.5614 5.3439C12.5614 5.3359 12.5774 5.2999 12.6094 5.2359C12.6414 5.1639 12.6574 5.1239 12.6574 5.1159C12.6734 5.0759 12.6894 5.0559 12.7054 5.0559C12.7374 5.0559 12.7614 5.0839 12.7774 5.1399C12.8014 5.1959 12.8014 5.2439 12.7774 5.2839C12.7694 5.2919 12.7494 5.3079 12.7174 5.3319C12.6934 5.3559 12.6734 5.3759 12.6574 5.3919L12.5014 5.5479L12.1774 5.8359C12.1694 5.8439 12.1614 5.8559 12.1534 5.8719C12.1454 5.8879 12.1334 5.9039 12.1174 5.9199L12.0094 6.0879C12.0014 6.1039 11.9854 6.1039 11.9614 6.0879C11.9374 6.0639 11.9054 6.0679 11.8654 6.0999C11.8574 6.1079 11.8494 6.1239 11.8414 6.1479C11.8414 6.1719 11.8374 6.1919 11.8294 6.2079C11.8214 6.2319 11.8214 6.2479 11.8294 6.2559C11.8374 6.2559 11.8414 6.2599 11.8414 6.2679C11.8334 6.2919 11.8174 6.3079 11.7934 6.3159C11.7774 6.3239 11.7614 6.3359 11.7454 6.3519C11.7374 6.3599 11.7374 6.3719 11.7454 6.3879C11.7534 6.4039 11.7494 6.4199 11.7334 6.4359C11.7254 6.4599 11.7174 6.4679 11.7094 6.4599C11.7014 6.4519 11.6894 6.4559 11.6734 6.4719C11.6654 6.4799 11.6534 6.4919 11.6374 6.5079C11.6294 6.5159 11.6174 6.5239 11.6014 6.5319C11.5374 6.5559 11.5014 6.5879 11.4934 6.6279C11.4854 6.6679 11.4574 6.7119 11.4094 6.7599C11.3054 6.8639 11.2334 6.9159 11.1934 6.9159Z" fill="#2B3A52"/>
<path d="M8.63841 7.03556C8.59041 7.03556 8.56641 7.00756 8.56641 6.95156C8.56641 6.91156 8.57841 6.86356 8.60241 6.80756C8.66641 6.67156 8.73841 6.47956 8.81841 6.23156C8.90641 5.98356 9.01441 5.77156 9.14241 5.59556C9.18241 5.50756 9.24241 5.39956 9.32241 5.27156C9.41041 5.13556 9.49441 4.97556 9.57441 4.79156V4.73156C9.57441 4.70756 9.57441 4.68756 9.57441 4.67156C9.58241 4.64756 9.59041 4.62356 9.59841 4.59956C9.63041 4.53556 9.65841 4.49156 9.68241 4.46756C9.71441 4.44356 9.74641 4.39956 9.77841 4.33556C9.77841 4.31956 9.77841 4.30356 9.77841 4.28756C9.78641 4.27156 9.79441 4.25556 9.80241 4.23956C9.78641 4.25556 9.78241 4.24356 9.79041 4.20356C9.77441 4.20356 9.79041 4.16356 9.83841 4.08356C9.87041 4.01156 9.89441 3.97156 9.91041 3.96356H9.92241C9.95441 3.91556 9.98241 3.87556 10.0064 3.84356C10.0304 3.80356 10.0384 3.77956 10.0304 3.77156V3.74756C10.0304 3.69156 10.0464 3.63956 10.0784 3.59156C10.1184 3.54356 10.1544 3.49156 10.1864 3.43556C10.2104 3.40356 10.2304 3.38756 10.2464 3.38756C10.2624 3.38756 10.2704 3.39156 10.2704 3.39956C10.2784 3.39956 10.2864 3.39956 10.2944 3.39956C10.3184 3.39956 10.3304 3.37956 10.3304 3.33956C10.3304 3.32356 10.3264 3.30356 10.3184 3.27956C10.3184 3.25556 10.3144 3.22756 10.3064 3.19556C10.3144 3.15556 10.3464 3.12356 10.4024 3.09956L10.4384 3.08756C10.4784 2.91956 10.5264 2.80756 10.5824 2.75156C10.5984 2.73556 10.6144 2.71956 10.6304 2.70356C10.6464 2.68756 10.6624 2.67156 10.6784 2.65556C10.7744 2.55156 10.8464 2.43956 10.8944 2.31956C10.9104 2.28756 10.9304 2.26356 10.9544 2.24756C10.9864 2.22356 11.0144 2.19556 11.0384 2.16356C11.0544 2.13956 11.0584 2.11556 11.0504 2.09156C11.0504 2.05956 11.0544 2.03156 11.0624 2.00756C11.1024 1.94356 11.1304 1.90756 11.1464 1.89956C11.1624 1.89156 11.1784 1.88356 11.1944 1.87556C11.2184 1.85956 11.2584 1.82356 11.3144 1.76756C11.3384 1.72756 11.3624 1.68756 11.3864 1.64756C11.4184 1.60756 11.4504 1.56756 11.4824 1.52756C11.5304 1.47156 11.5824 1.43156 11.6384 1.40756C11.6944 1.38356 11.7504 1.34756 11.8064 1.29956C11.8224 1.28356 11.8304 1.25956 11.8304 1.22756C11.8304 1.18756 11.8384 1.15956 11.8544 1.14356C12.1344 0.919562 12.4344 0.731562 12.7544 0.579562C13.0824 0.427562 13.3344 0.351562 13.5104 0.351562C13.5744 0.351562 13.6344 0.355562 13.6904 0.363562C13.7544 0.371562 13.8144 0.383562 13.8704 0.399563H13.8944C13.9344 0.399563 13.9744 0.407562 14.0144 0.423562C14.0544 0.439563 14.0904 0.455563 14.1224 0.471562C14.1544 0.471562 14.1944 0.479562 14.2424 0.495562C14.2824 0.511562 14.3064 0.535563 14.3144 0.567563C14.3224 0.599563 14.3144 0.623563 14.2904 0.639562C14.2824 0.647562 14.2704 0.647562 14.2544 0.639562C14.2384 0.631562 14.2224 0.627563 14.2064 0.627563C14.1904 0.627563 14.1744 0.619562 14.1584 0.603562C14.1424 0.587562 14.1264 0.575562 14.1104 0.567563C14.0784 0.567563 14.0424 0.571563 14.0024 0.579562C13.9704 0.587562 13.9344 0.591562 13.8944 0.591562H13.8584C13.8024 0.591562 13.7624 0.583562 13.7384 0.567563C13.7224 0.543562 13.6824 0.539562 13.6184 0.555563C13.6104 0.555563 13.5864 0.559563 13.5464 0.567563C13.5064 0.575562 13.4784 0.579562 13.4624 0.579562C13.1744 0.651562 12.9224 0.771563 12.7064 0.939563C12.4904 1.09956 12.2984 1.27956 12.1304 1.47956C11.9704 1.67956 11.8144 1.87156 11.6624 2.05556C11.5904 2.19956 11.5184 2.31556 11.4464 2.40356C11.4384 2.41156 11.4304 2.40756 11.4224 2.39156C11.4144 2.37556 11.4064 2.37556 11.3984 2.39156C11.3744 2.41556 11.3544 2.45556 11.3384 2.51156C11.3304 2.55956 11.3144 2.59956 11.2904 2.63156C11.2824 2.63956 11.2744 2.63556 11.2664 2.61956C11.2584 2.60356 11.2464 2.60356 11.2304 2.61956C11.2224 2.62756 11.2104 2.65956 11.1944 2.71556C11.1864 2.76356 11.1744 2.79556 11.1584 2.81156C11.0624 2.93956 10.9584 3.06356 10.8464 3.18356C10.7344 3.30356 10.6224 3.44356 10.5104 3.60356C10.3504 3.85156 10.1984 4.09556 10.0544 4.33556C9.91041 4.57556 9.75841 4.83956 9.59841 5.12756C9.54241 5.22356 9.49841 5.31156 9.46641 5.39156C9.44241 5.46356 9.41441 5.53156 9.38241 5.59556C9.36641 5.61956 9.35841 5.65156 9.35841 5.69156C9.35841 5.74756 9.39041 5.77556 9.45441 5.77556C9.50241 5.77556 9.55041 5.76356 9.59841 5.73956L9.71841 5.69156C9.91041 5.51556 10.1104 5.36756 10.3184 5.24756C10.3264 5.24756 10.3304 5.24756 10.3304 5.24756C10.3384 5.23956 10.3464 5.23556 10.3544 5.23556C10.3784 5.23556 10.3944 5.25156 10.4024 5.28356C10.4104 5.30756 10.4024 5.32756 10.3784 5.34356C10.1464 5.47156 9.93041 5.63556 9.73041 5.83556C9.72241 5.85156 9.71441 5.86756 9.70641 5.88356C9.69841 5.89956 9.68641 5.91556 9.67041 5.93156C9.65441 5.94756 9.63041 5.97556 9.59841 6.01556C9.57441 6.05556 9.56241 6.07956 9.56241 6.08756C9.55441 6.11156 9.54241 6.11956 9.52641 6.11156C9.51841 6.10356 9.49441 6.11556 9.45441 6.14756C9.44641 6.15556 9.43841 6.17156 9.43041 6.19556C9.43041 6.21956 9.42641 6.23956 9.41841 6.25556C9.41041 6.27956 9.39441 6.29956 9.37041 6.31556C9.35441 6.32356 9.34641 6.33156 9.34641 6.33956C9.33841 6.37156 9.32241 6.39156 9.29841 6.39956C9.28241 6.39956 9.26641 6.40756 9.25041 6.42356C9.24241 6.43156 9.24241 6.44356 9.25041 6.45956C9.25841 6.47556 9.25441 6.49156 9.23841 6.50756C9.23041 6.53156 9.22241 6.54356 9.21441 6.54356C9.20641 6.53556 9.19441 6.53956 9.17841 6.55556C9.14641 6.58756 9.12241 6.60356 9.10641 6.60356C9.05841 6.61956 9.03841 6.63156 9.04641 6.63956C9.06241 6.64756 9.07441 6.65556 9.08241 6.66356C9.09841 6.66356 9.08641 6.67556 9.04641 6.69956C9.03041 6.70756 9.01441 6.73156 8.99841 6.77156C8.98241 6.80356 8.96641 6.82756 8.95041 6.84356C8.92641 6.85956 8.90241 6.87156 8.87841 6.87956C8.86241 6.88756 8.84241 6.90356 8.81841 6.92756C8.74641 6.99956 8.68641 7.03556 8.63841 7.03556Z" fill="#2B3A52"/>
<path d="M2.99936 7.87582C2.64736 7.87582 2.30736 7.72382 1.97936 7.41982C1.93136 7.40382 1.89136 7.36782 1.85936 7.31182C1.82736 7.26382 1.79536 7.22382 1.76336 7.19182C1.70736 7.17582 1.67136 7.15182 1.65536 7.11982C1.63936 7.08782 1.62336 7.04782 1.60736 6.99982C1.60736 6.99182 1.59936 6.97982 1.58336 6.96382C1.57536 6.95582 1.56736 6.94782 1.55936 6.93982C1.55136 6.93182 1.54336 6.92382 1.53536 6.91582C1.52736 6.91582 1.52336 6.91582 1.52336 6.91582C1.53136 6.90782 1.53536 6.90382 1.53536 6.90382C1.50336 6.83982 1.48336 6.79582 1.47536 6.77182C1.46736 6.73982 1.43536 6.69982 1.37936 6.65182C1.36336 6.63582 1.34736 6.61182 1.33136 6.57982C1.32336 6.53982 1.31536 6.50782 1.30736 6.48382C1.21936 6.27582 1.13936 6.06382 1.06736 5.84782C1.00336 5.62382 0.971359 5.39582 0.971359 5.16382C0.971359 5.08382 0.995359 5.02382 1.04336 4.98382C1.09136 4.94382 1.14336 4.92382 1.19936 4.92382C1.30336 4.92382 1.37136 4.97582 1.40336 5.07982C1.41936 5.11182 1.43536 5.14782 1.45136 5.18782C1.47536 5.21982 1.48736 5.25182 1.48736 5.28382V5.40382C1.48736 5.45182 1.49936 5.46382 1.52336 5.43982C1.55536 5.40782 1.57536 5.41182 1.58336 5.45182C1.59936 5.50782 1.61136 5.54382 1.61936 5.55982C1.62736 5.56782 1.65936 5.58782 1.71536 5.61982C1.73136 5.65182 1.75136 5.68382 1.77536 5.71582C1.79936 5.74782 1.82336 5.77982 1.84736 5.81182V5.83582C1.84736 5.88382 1.86336 5.91982 1.89536 5.94382C1.92736 5.95982 1.96336 5.97982 2.00336 6.00382L2.15936 6.17182C2.15136 6.18782 2.14736 6.20382 2.14736 6.21982C2.14736 6.26782 2.17136 6.29982 2.21936 6.31582C2.27536 6.33182 2.32336 6.34782 2.36336 6.36382C2.37136 6.37182 2.41536 6.41182 2.49536 6.48382C2.58336 6.54782 2.64336 6.58782 2.67536 6.60382C2.71536 6.62782 2.75936 6.65582 2.80736 6.68782C2.85536 6.71182 2.90336 6.73182 2.95136 6.74782C2.96736 6.74782 2.98336 6.75582 2.99936 6.77182C3.14336 6.82782 3.27536 6.85582 3.39536 6.85582C3.50736 6.85582 3.63536 6.83182 3.77936 6.78382C3.80336 6.77582 3.82336 6.77182 3.83936 6.77182C3.86336 6.76382 3.87936 6.75982 3.88736 6.75982C3.91136 6.75982 3.92336 6.76782 3.92336 6.78382C3.92336 6.82382 3.88736 6.86382 3.81536 6.90382C3.81536 6.91982 3.80336 6.92782 3.77936 6.92782C3.74736 6.93582 3.71536 6.94782 3.68336 6.96382C3.65136 6.97982 3.61936 6.98382 3.58736 6.97582C3.54736 6.97582 3.51536 6.97182 3.49136 6.96382C3.46736 6.95582 3.43536 6.96782 3.39536 6.99982C3.29136 6.99182 3.17536 6.96782 3.04736 6.92782C2.91936 6.88782 2.81136 6.84382 2.72336 6.79582C2.71536 6.73982 2.67936 6.71182 2.61536 6.71182C2.55136 6.70382 2.49936 6.68382 2.45936 6.65182C2.42736 6.61182 2.39936 6.56782 2.37536 6.51982C2.35936 6.47182 2.31936 6.46782 2.25536 6.50782C2.22336 6.47582 2.19536 6.45182 2.17136 6.43582C2.14736 6.41182 2.11136 6.39982 2.06336 6.39982C2.04736 6.38382 2.02336 6.36782 1.99136 6.35182C1.96736 6.33582 1.95936 6.31182 1.96736 6.27982C1.93536 6.25582 1.87136 6.21582 1.77536 6.15982C1.68736 6.09582 1.63536 6.05582 1.61936 6.03982C1.57936 5.99182 1.54336 5.95182 1.51136 5.91982C1.47936 5.88782 1.43536 5.85982 1.37936 5.83582L1.34336 5.81182C1.44736 6.12382 1.57136 6.42782 1.71536 6.72382C1.86736 7.01982 2.08736 7.25982 2.37536 7.44382C2.51136 7.52382 2.63536 7.58782 2.74736 7.63582C2.86736 7.69182 2.98336 7.71982 3.09536 7.71982C3.30336 7.71982 3.52336 7.61582 3.75536 7.40782C3.95536 7.22382 4.13536 7.00382 4.29536 6.74782C4.45536 6.48382 4.59936 6.20782 4.72736 5.91982C4.85536 5.63182 4.96736 5.36382 5.06336 5.11582C5.07936 5.09982 5.09136 5.08782 5.09936 5.07982C5.10736 5.07182 5.11536 5.06382 5.12336 5.05582C5.13936 5.00782 5.15136 4.95182 5.15936 4.88782C5.17536 4.82382 5.19136 4.76382 5.20736 4.70782L4.81136 4.77982C4.70736 4.79582 4.65536 4.79982 4.65536 4.79182C4.65536 4.77582 4.66736 4.75982 4.69136 4.74382C4.71536 4.71982 4.70336 4.71182 4.65536 4.71982H4.60736C4.54336 4.71982 4.48336 4.73182 4.42736 4.75582C4.37136 4.77982 4.34336 4.79982 4.34336 4.81582C4.34336 4.83182 4.30736 4.85182 4.23536 4.87582C4.17136 4.89982 4.10336 4.91982 4.03136 4.93582C3.95936 4.95182 3.91936 4.95982 3.91136 4.95982C3.78336 4.98382 3.66336 5.00782 3.55136 5.03182C3.43936 5.04782 3.33936 5.06382 3.25136 5.07982H3.23936C3.20736 5.07982 3.17936 5.05582 3.15536 5.00782C3.13136 4.95982 3.11936 4.90782 3.11936 4.85182C3.13536 4.75582 3.16336 4.68782 3.20336 4.64782C3.21936 4.63182 3.23536 4.62382 3.25136 4.62382L3.63536 4.56382C3.72336 4.54782 3.83136 4.53582 3.95936 4.52782C4.09536 4.51982 4.21136 4.49982 4.30736 4.46782L4.90736 4.41982L5.37536 4.37182C5.38336 4.35582 5.38736 4.32782 5.38736 4.28782L5.41136 4.22782C5.42736 4.21982 5.42336 4.20782 5.39936 4.19182C5.37536 4.17582 5.39136 4.16382 5.44736 4.15582C5.50336 4.06782 5.53536 3.97982 5.54336 3.89182C5.55936 3.79582 5.58336 3.72782 5.61536 3.68782C5.63936 3.64782 5.66336 3.61182 5.68736 3.57982C5.71136 3.54782 5.71536 3.50782 5.69936 3.45982C5.70736 3.42782 5.73136 3.35182 5.77136 3.23182C5.81936 3.10382 5.87136 2.96382 5.92736 2.81182C5.98336 2.65982 6.03136 2.52782 6.07136 2.41582C6.11136 2.29582 6.13136 2.22782 6.13136 2.21182L6.25136 1.86382C6.02736 1.87182 5.79936 1.88382 5.56736 1.89982C5.33536 1.91582 5.10736 1.95182 4.88336 2.00782C4.89136 1.99982 4.88736 1.99182 4.87136 1.98382C4.85536 1.96782 4.84336 1.95982 4.83536 1.95982L4.82336 1.94782C4.79136 1.93982 4.78336 1.94782 4.79936 1.97182C4.82336 1.98782 4.81936 2.00382 4.78736 2.01982C4.71536 2.02782 4.63136 2.04782 4.53536 2.07982C4.44736 2.10382 4.36736 2.11582 4.29536 2.11582C4.26336 2.12382 4.22736 2.12782 4.18736 2.12782C4.14736 2.11982 4.10736 2.11582 4.06736 2.11582C3.94736 2.12382 3.82736 2.15582 3.70736 2.21182C3.59536 2.26782 3.47936 2.31582 3.35936 2.35582L3.14336 2.41582C3.05536 2.45582 2.95936 2.48382 2.85536 2.49982C2.75136 2.51582 2.65536 2.54382 2.56736 2.58382L2.57936 2.59582C2.54736 2.61982 2.50736 2.63582 2.45936 2.64382C2.41136 2.65182 2.36736 2.66382 2.32736 2.67982C2.23136 2.71182 2.13136 2.75182 2.02736 2.79982C1.93136 2.83982 1.83136 2.87582 1.72736 2.90782C1.67136 2.92382 1.61536 2.93982 1.55936 2.95582C1.51136 2.96382 1.45536 2.97982 1.39136 3.00382C1.35936 3.01182 1.33136 3.01982 1.30736 3.02782C1.28336 3.02782 1.25536 3.02782 1.22336 3.02782C1.15136 3.02782 1.08736 3.01182 1.03136 2.97982C0.999359 2.96382 0.951359 2.91982 0.887359 2.84782C0.831359 2.76782 0.783359 2.68782 0.743359 2.60782C0.703359 2.51982 0.687359 2.45582 0.695359 2.41582C0.703359 2.39182 0.755359 2.36382 0.851359 2.33182C0.947359 2.29182 1.05936 2.25582 1.18736 2.22382C1.31536 2.18382 1.43136 2.15182 1.53536 2.12782C1.64736 2.09582 1.71936 2.07582 1.75136 2.06782C1.76736 2.05982 1.81136 2.05182 1.88336 2.04382C1.95536 2.02782 1.99536 2.03582 2.00336 2.06782C2.01136 2.08382 2.00336 2.10782 1.97936 2.13982C1.95536 2.16382 1.93536 2.18382 1.91936 2.19982C1.91936 2.20782 1.90736 2.22382 1.88336 2.24782C1.86736 2.27182 1.86736 2.27982 1.88336 2.27182L2.30336 2.16382C2.36736 2.14782 2.44336 2.14382 2.53136 2.15182C2.62736 2.15182 2.69936 2.13582 2.74736 2.10382C2.76336 2.08782 2.77136 2.07182 2.77136 2.05582C2.77936 2.03982 2.79536 2.03182 2.81936 2.03182C2.87536 2.01582 2.96736 1.99982 3.09536 1.98382C3.23136 1.96782 3.31536 1.94382 3.34736 1.91182C3.41136 1.89582 3.47936 1.88782 3.55136 1.88782C3.62336 1.87982 3.68736 1.85982 3.74336 1.82782C3.76736 1.81982 3.84336 1.80382 3.97136 1.77982C4.10736 1.75582 4.25936 1.73182 4.42736 1.70782C4.60336 1.67582 4.75936 1.65182 4.89536 1.63582C5.03136 1.61182 5.11136 1.59982 5.13536 1.59982H5.14736C5.17936 1.59982 5.21136 1.59582 5.24336 1.58782C5.27536 1.57982 5.30736 1.57582 5.33936 1.57582C5.40336 1.57582 5.43536 1.60382 5.43536 1.65982C5.44336 1.66782 5.46336 1.67182 5.49536 1.67182C5.56736 1.67182 5.62336 1.65182 5.66336 1.61182C5.69536 1.60382 5.71936 1.59182 5.73536 1.57582C5.75936 1.55982 5.78736 1.54782 5.81936 1.53982C5.90736 1.52382 5.99936 1.51982 6.09536 1.52782C6.19936 1.52782 6.29136 1.52782 6.37136 1.52782C6.42736 1.40782 6.48736 1.32782 6.55136 1.28782C6.61536 1.23982 6.71136 1.21582 6.83936 1.21582C6.92736 1.21582 6.98336 1.25982 7.00736 1.34782C7.03136 1.42782 7.04336 1.49982 7.04336 1.56382C7.08336 1.56382 7.13536 1.56382 7.19936 1.56382C7.26336 1.55582 7.33136 1.55182 7.40336 1.55182C7.47536 1.55182 7.54336 1.55582 7.60736 1.56382C7.67936 1.57182 7.73536 1.58382 7.77536 1.59982C7.78336 1.57582 7.80336 1.56782 7.83536 1.57582C7.87536 1.57582 7.90336 1.57982 7.91936 1.58782C7.98336 1.61982 8.05136 1.63582 8.12336 1.63582C8.20336 1.62782 8.27936 1.63982 8.35136 1.67182C8.42336 1.69582 8.49136 1.72382 8.55536 1.75582C8.61936 1.78782 8.68736 1.81582 8.75936 1.83982C8.82336 1.85582 8.87536 1.88782 8.91536 1.93582C8.96336 1.97582 9.01536 2.01582 9.07136 2.05582C9.09536 2.07182 9.11936 2.09182 9.14336 2.11582C9.16736 2.13182 9.17936 2.15582 9.17936 2.18782C9.17936 2.18782 9.19136 2.20382 9.21536 2.23582C9.23936 2.26782 9.22336 2.27582 9.16736 2.25982C9.15936 2.25982 9.14736 2.25982 9.13136 2.25982C9.12336 2.25182 9.11536 2.25182 9.10736 2.25982C9.10736 2.27582 9.11536 2.29182 9.13136 2.30782C9.14736 2.31582 9.16336 2.31582 9.17936 2.30782C9.20336 2.29982 9.21936 2.29182 9.22736 2.28382C9.25936 2.28382 9.27536 2.29982 9.27536 2.33182C9.28336 2.36382 9.29136 2.39582 9.29936 2.42782C9.32336 2.52382 9.33536 2.61982 9.33536 2.71582C9.33536 2.81982 9.30736 2.93582 9.25136 3.06382C9.20336 3.19182 9.13536 3.30382 9.04736 3.39982C8.95936 3.48782 8.85536 3.53182 8.73536 3.53182C8.69536 3.53182 8.66336 3.52782 8.63936 3.51982C8.55136 3.49582 8.50736 3.47182 8.50736 3.44782C8.50736 3.42382 8.54736 3.38382 8.62736 3.32782C8.68336 3.28782 8.73136 3.24382 8.77136 3.19582C8.81136 3.13982 8.84736 3.08382 8.87936 3.02782C8.93536 2.98782 8.97936 2.90782 9.01136 2.78782C9.04336 2.66782 9.05936 2.55582 9.05936 2.45182C9.05936 2.37182 9.04736 2.30782 9.02336 2.25982C9.01536 2.25982 8.97936 2.21582 8.91536 2.12782C8.85936 2.03982 8.79136 1.99182 8.71136 1.98382C8.67136 1.96782 8.62736 1.95182 8.57936 1.93582C8.53936 1.91982 8.49936 1.90782 8.45936 1.89982C8.42736 1.86782 8.36336 1.84382 8.26736 1.82782C8.17936 1.81182 8.08736 1.79982 7.99136 1.79182C7.89536 1.78382 7.82336 1.77982 7.77536 1.77982C7.73536 1.77982 7.66336 1.78382 7.55936 1.79182C7.45536 1.79182 7.35136 1.79582 7.24736 1.80382C7.14336 1.80382 7.07136 1.80382 7.03136 1.80382C6.95936 2.01182 6.83536 2.13582 6.65936 2.17582C6.65136 2.19982 6.61936 2.28382 6.56336 2.42782C6.50736 2.57182 6.44736 2.73182 6.38336 2.90782C6.31936 3.07582 6.25936 3.22782 6.20336 3.36382C6.15536 3.49182 6.12736 3.56382 6.11936 3.57982C6.09536 3.61182 6.07136 3.64382 6.04736 3.67582C6.02336 3.70782 6.00736 3.74382 5.99936 3.78382C5.97536 3.92782 5.90336 4.12382 5.78336 4.37182C5.79136 4.37182 5.79536 4.37582 5.79536 4.38382C5.79536 4.38382 5.81136 4.38382 5.84336 4.38382C5.90736 4.38382 5.94736 4.37982 5.96336 4.37182C5.98736 4.35582 6.03136 4.34382 6.09536 4.33582C6.18336 4.32782 6.29136 4.32382 6.41936 4.32382C6.55536 4.32382 6.66336 4.32782 6.74336 4.33582C6.78336 4.33582 6.83936 4.33582 6.91136 4.33582C6.99136 4.33582 7.04736 4.34382 7.07936 4.35982C7.09536 4.36782 7.09936 4.37582 7.09136 4.38382C7.08336 4.39182 7.09136 4.39582 7.11536 4.39582H7.13936C7.15536 4.39582 7.17136 4.39582 7.18736 4.39582C7.20336 4.38782 7.22336 4.37982 7.24736 4.37182L7.35536 4.38382C7.43536 4.39982 7.49936 4.41582 7.54736 4.43182C7.61936 4.43982 7.65536 4.47582 7.65536 4.53982C7.65536 4.58782 7.61936 4.59982 7.54736 4.57582C7.53136 4.57582 7.51136 4.57182 7.48736 4.56382C7.47136 4.55582 7.45136 4.54782 7.42736 4.53982H7.37936C7.29136 4.53982 7.15936 4.53582 6.98336 4.52782C6.80736 4.51982 6.65136 4.51982 6.51536 4.52782C6.49136 4.52782 6.47936 4.51982 6.47936 4.50382C6.48736 4.47982 6.48336 4.46782 6.46736 4.46782C6.45936 4.45982 6.43936 4.46782 6.40736 4.49182C6.38336 4.50782 6.36736 4.51982 6.35936 4.52782C6.33536 4.52782 6.31536 4.53182 6.29936 4.53982C6.29136 4.54782 6.27536 4.55182 6.25136 4.55182C6.25136 4.55182 5.82069 4.45422 5.66336 4.62382C5.58634 4.70685 5.54336 4.88782 5.54336 4.88782C5.49536 4.91982 5.45536 4.94782 5.42336 4.97182C5.39136 4.98782 5.39936 5.02382 5.44736 5.07982C5.42336 5.13582 5.39936 5.16382 5.37536 5.16382C5.35136 5.15582 5.31936 5.14782 5.27936 5.13982C5.28736 5.17982 5.29936 5.20782 5.31536 5.22382C5.33136 5.23182 5.34336 5.25582 5.35136 5.29582C5.28736 5.43982 5.20736 5.61582 5.11136 5.82382C5.01536 6.02382 4.91936 6.18382 4.82336 6.30382C4.76736 6.32782 4.72336 6.35182 4.69136 6.37582C4.65936 6.39982 4.65936 6.44782 4.69136 6.51982C4.67536 6.53582 4.66336 6.55582 4.65536 6.57982C4.64736 6.60382 4.63936 6.62782 4.63136 6.65182L4.53536 6.79582C4.50336 6.81982 4.47136 6.84782 4.43936 6.87982C4.40736 6.90382 4.39136 6.94382 4.39136 6.99982C4.35936 7.04782 4.33136 7.08382 4.30736 7.10782C4.25936 7.12382 4.21936 7.14382 4.18736 7.16782C4.15536 7.19182 4.13936 7.23582 4.13936 7.29982C3.97936 7.47582 3.79936 7.61582 3.59936 7.71982C3.40736 7.82382 3.20736 7.87582 2.99936 7.87582Z" fill="#2B3A52"/>
</svg>
